<svg width="32" height="32" viewBox="0 0 32 32" fill="none" xmlns="http://www.w3.org/2000/svg">
<g clip-path="url(#clip0)">
<path d="M29.9284 25.3157H18.3912V18.3319H28.7301C30.1892 18.3319 31.372 19.5148 31.372 20.9738V23.8721C31.372 24.6693 30.7257 25.3157 29.9284 25.3157Z" fill="#FFE266"/>
<path d="M28.7302 18.3319H27.5646C28.2805 18.3319 28.8609 18.9123 28.8609 19.6283V21.6506C28.8609 22.2731 28.3564 22.7776 27.7339 22.7776H18.3912V25.3157H29.9283C30.7256 25.3157 31.372 24.6693 31.372 23.872V20.9738C31.372 19.5147 30.1892 18.3319 28.7302 18.3319Z" fill="#EFAA66"/>
<path d="M24.3339 25.3157H2.00531C1.24456 25.3157 0.627808 24.6989 0.627808 23.9382V14.4215C0.627808 12.487 2.196 10.9188 4.1305 10.9188H20.8312C22.7657 10.9188 24.3339 12.487 24.3339 14.4215V25.3157Z" fill="#FFE266"/>
<path d="M16.6813 14.4813H19.4246C20.045 14.4813 20.5479 14.9842 20.5479 15.6046V25.3157H15.558V15.6046C15.558 14.9842 16.0609 14.4813 16.6813 14.4813Z" fill="#B2E7F1"/>
<path d="M20.8319 10.9188H17.7045C19.3169 10.9188 20.6241 12.226 20.6241 13.8384V21.2289C20.6241 22.0843 19.9307 22.7777 19.0753 22.7777H1.77667C1.14254 22.7777 0.628479 22.2636 0.628479 21.6295V23.9383C0.628479 24.699 1.24523 25.3158 2.00598 25.3158H21.637C23.1269 25.3158 24.3346 24.108 24.3346 22.6181V14.4214C24.3345 12.487 22.7664 10.9188 20.8319 10.9188Z" fill="#EFAA66"/>
<path d="M23.0598 18.5863H24.4476V13.7766H23.0598C22.645 13.7766 22.3087 14.1129 22.3087 14.5277V17.8352C22.3087 18.25 22.645 18.5863 23.0598 18.5863Z" fill="#A7ADF1"/>
<path d="M19.0746 22.7776H15.558V25.3157H20.548V21.7067C20.3465 22.3281 19.7632 22.7776 19.0746 22.7776Z" fill="#A7ADF1"/>
<path d="M29.667 26.8593C29.9815 24.9194 28.6638 23.0918 26.7238 22.7773C24.7839 22.4628 22.9563 23.7805 22.6418 25.7205C22.3273 27.6604 23.645 29.488 25.585 29.8025C27.525 30.117 29.3525 28.7993 29.667 26.8593Z" fill="#A183E2"/>
<path d="M8.8259 29.8954C10.7914 29.8954 12.3848 28.302 12.3848 26.3365C12.3848 24.371 10.7914 22.7776 8.8259 22.7776C6.86039 22.7776 5.26703 24.371 5.26703 26.3365C5.26703 28.302 6.86039 29.8954 8.8259 29.8954Z" fill="#A183E2"/>
<path d="M8.8259 22.7776C8.62015 22.7776 8.41872 22.7961 8.22253 22.8296C9.33515 23.0619 10.171 24.0481 10.171 25.2296C10.171 26.5838 9.07322 27.6816 7.71903 27.6816C6.53747 27.6816 5.55128 26.8457 5.31903 25.7332C5.28553 25.9294 5.26703 26.1308 5.26703 26.3366C5.26703 28.3021 6.8604 29.8954 8.8259 29.8954C10.7914 29.8954 12.3848 28.3021 12.3848 26.3366C12.3848 24.371 10.7914 22.7776 8.8259 22.7776Z" fill="#9762E2"/>
<path d="M26.1615 22.7776C25.9557 22.7776 25.7543 22.7961 25.5581 22.8296C26.6707 23.0619 27.5065 24.0481 27.5065 25.2296C27.5065 26.5838 26.4088 27.6816 25.0546 27.6816C23.873 27.6816 22.8869 26.8457 22.6546 25.7332C22.6211 25.9294 22.6026 26.1308 22.6026 26.3366C22.6026 28.3021 24.196 29.8954 26.1615 29.8954C28.127 29.8954 29.7204 28.3021 29.7204 26.3366C29.7204 24.371 28.127 22.7776 26.1615 22.7776Z" fill="#9762E2"/>
<path d="M9.22633 27.2801C9.74726 27.0642 9.99452 26.4669 9.77859 25.9459C9.56266 25.425 8.96532 25.1777 8.44439 25.3937C7.92346 25.6096 7.6762 26.2069 7.89213 26.7279C8.10806 27.2488 8.7054 27.4961 9.22633 27.2801Z" fill="#8BB6EF"/>
<path d="M26.3177 27.3464C26.8742 27.2562 27.2521 26.732 27.1619 26.1756C27.0717 25.6191 26.5475 25.2412 25.9911 25.3314C25.4346 25.4216 25.0566 25.9458 25.1469 26.5022C25.2371 27.0587 25.7613 27.4366 26.3177 27.3464Z" fill="#8BB6EF"/>
<path d="M12.5885 18.7566H10.1429C9.63759 18.7566 9.22803 18.347 9.22803 17.8417V15.3961C9.22803 14.8908 9.63765 14.4812 10.1429 14.4812H12.5885C13.0938 14.4812 13.5033 14.8908 13.5033 15.3961V17.8417C13.5033 18.347 13.0937 18.7566 12.5885 18.7566Z" fill="#B2E7F1"/>
<path d="M6.42306 18.7566H3.97756C3.47225 18.7566 3.06268 18.347 3.06268 17.8417V15.3961C3.06268 14.8908 3.47231 14.4812 3.97756 14.4812H6.42312C6.92837 14.4812 7.338 14.8908 7.338 15.3961V17.8417C7.338 18.347 6.92837 18.7566 6.42306 18.7566Z" fill="#B2E7F1"/>
<path d="M30.2464 22.044H31.1643V19.6821H30.2464C29.5942 19.6821 29.0655 20.2109 29.0655 20.8631C29.0654 21.5153 29.5942 22.044 30.2464 22.044Z" fill="#FEF2A8"/>
<path d="M28.7302 17.704H24.9619V14.4215C24.9619 12.144 23.1089 10.291 20.8313 10.291H4.13056C1.85294 10.291 0 12.1439 0 14.4215V23.9381C0 25.044 0.899562 25.9435 2.00537 25.9435H4.65825C4.64612 26.073 4.63925 26.2039 4.63925 26.3365C4.63925 28.6451 6.51737 30.5232 8.826 30.5232C11.1346 30.5232 13.0127 28.645 13.0127 26.3365C13.0127 26.2039 13.0058 26.073 12.9937 25.9435H21.9904C21.9809 26.0586 21.9748 26.1748 21.9748 26.2924C21.9748 28.601 23.8529 30.4791 26.1615 30.4791C28.4701 30.4791 30.3482 28.6009 30.3482 26.2924C30.3482 26.1614 30.3414 26.0321 30.3295 25.9041C31.2805 25.7168 32 24.877 32 23.872V20.9738C32 19.1708 30.5332 17.704 28.7302 17.704ZM30.2465 20.0588H30.5235C30.6643 20.3336 30.7442 20.6444 30.7442 20.9738V21.6673H30.2465C29.8031 21.6673 29.4422 21.3065 29.4422 20.8631C29.4422 20.4196 29.8031 20.0588 30.2465 20.0588ZM23.7061 14.4215V18.2095H23.0598C22.8534 18.2095 22.6854 18.0416 22.6854 17.8351V14.5276C22.6854 14.3212 22.8534 14.1533 23.0598 14.1533H23.6932C23.7014 14.2417 23.7061 14.331 23.7061 14.4215ZM8.826 29.2675C7.20988 29.2675 5.895 27.9526 5.895 26.3365C5.895 24.7203 7.20981 23.4055 8.826 23.4055C10.4422 23.4055 11.757 24.7203 11.757 26.3365C11.757 27.9526 10.4422 29.2675 8.826 29.2675ZM8.826 22.1497C7.10256 22.1497 5.61944 23.1966 4.97806 24.6878H2.00537C1.592 24.6878 1.25575 24.3515 1.25575 23.9381V20.8584H15.1813V24.6878H12.6739C12.0326 23.1966 10.5495 22.1497 8.826 22.1497ZM19.4247 14.858C19.8363 14.858 20.1712 15.193 20.1712 15.6046V24.6878H18.4298V14.858H19.4247ZM17.6763 24.6878H15.9348V15.6046C15.9348 15.193 16.2698 14.858 16.6814 14.858H17.6763V24.6878ZM26.1616 29.2234C24.5454 29.2234 23.2306 27.9086 23.2306 26.2925C23.2306 24.6763 24.5454 23.3615 26.1616 23.3615C27.7776 23.3615 29.0925 24.6763 29.0925 26.2925C29.0925 27.9086 27.7777 29.2234 26.1616 29.2234ZM30.0255 24.6815C29.3931 23.1703 27.8995 22.1057 26.1616 22.1057C24.4212 22.1057 22.9259 23.1733 22.2951 24.6878H20.9247V15.6046C20.9247 14.7775 20.2518 14.1046 19.4247 14.1046H16.6814C15.8542 14.1046 15.1813 14.7775 15.1813 15.6046V20.105H1.25581V14.4215C1.25581 12.8364 2.54544 11.5468 4.13056 11.5468H20.8314C22.0567 11.5468 23.105 12.3178 23.5179 13.3999H23.0598C22.4379 13.3999 21.932 13.9059 21.932 14.5278V17.8353C21.932 18.4571 22.4379 18.9631 23.0598 18.9631H24.4476C24.4636 18.9631 24.4792 18.9618 24.4947 18.9598H28.7302C29.1704 18.9598 29.5776 19.1021 29.9094 19.3426C29.2121 19.4971 28.6888 20.12 28.6888 20.8631C28.6888 21.722 29.3876 22.4208 30.2465 22.4208H30.7442V23.872C30.7442 24.2889 30.4296 24.6332 30.0255 24.6815Z" fill="#440A29"/>
<path d="M8.82603 24.939C8.0554 24.939 7.42847 25.5659 7.42847 26.3365C7.42847 27.1072 8.0554 27.7341 8.82603 27.7341C9.59665 27.7341 10.2236 27.1072 10.2236 26.3365C10.2236 25.5658 9.59665 24.939 8.82603 24.939ZM8.82603 26.9806C8.4709 26.9806 8.18197 26.6917 8.18197 26.3365C8.18197 25.9814 8.4709 25.6925 8.82603 25.6925C9.18122 25.6925 9.47009 25.9814 9.47009 26.3365C9.47009 26.6917 9.18122 26.9806 8.82603 26.9806Z" fill="#440A29"/>
<path d="M26.1615 24.939C25.3909 24.939 24.764 25.5659 24.764 26.3365C24.764 27.1072 25.3909 27.7341 26.1615 27.7341C26.9321 27.7341 27.559 27.1072 27.559 26.3365C27.559 25.5658 26.9321 24.939 26.1615 24.939ZM26.1615 26.9806C25.8064 26.9806 25.5175 26.6917 25.5175 26.3365C25.5175 25.9814 25.8064 25.6925 26.1615 25.6925C26.5166 25.6925 26.8055 25.9814 26.8055 26.3365C26.8055 26.6917 26.5167 26.9806 26.1615 26.9806Z" fill="#440A29"/>
<path d="M12.5884 14.1045H10.1429C9.43076 14.1045 8.85126 14.6839 8.85126 15.3961V17.8417C8.85126 18.5539 9.43069 19.1333 10.1429 19.1333H12.5884C13.3006 19.1333 13.8801 18.5539 13.8801 17.8417V15.3961C13.8801 14.684 13.3007 14.1045 12.5884 14.1045ZM13.1266 17.8417C13.1266 18.1384 12.8852 18.3798 12.5884 18.3798H10.1429C9.84613 18.3798 9.60476 18.1384 9.60476 17.8417V15.3961C9.60476 15.0995 9.84619 14.858 10.1429 14.858H12.5884C12.8852 14.858 13.1266 15.0995 13.1266 15.3961V17.8417Z" fill="#440A29"/>
<path d="M6.42316 14.1045H3.97766C3.26547 14.1045 2.68597 14.6839 2.68597 15.3961V17.8417C2.68597 18.5539 3.26541 19.1333 3.97766 19.1333H6.42322C7.13541 19.1333 7.71485 18.5539 7.71485 17.8417V15.3961C7.71479 14.684 7.13541 14.1045 6.42316 14.1045ZM6.96129 17.8417C6.96129 18.1384 6.71985 18.3798 6.42316 18.3798H3.97766C3.68085 18.3798 3.43947 18.1384 3.43947 17.8417V15.3961C3.43947 15.0995 3.68085 14.858 3.97766 14.858H6.42322C6.71991 14.858 6.96135 15.0995 6.96135 15.3961V17.8417H6.96129Z" fill="#440A29"/>
<path d="M11.9144 16.2422C11.7063 16.2422 11.5377 16.4109 11.5377 16.6189V17.4206C11.5377 17.6287 11.7063 17.7974 11.9144 17.7974C12.1225 17.7974 12.2912 17.6287 12.2912 17.4206V16.6189C12.2912 16.4109 12.1225 16.2422 11.9144 16.2422Z" fill="#440A29"/>
<path d="M5.88584 16.2422C5.67778 16.2422 5.50909 16.4109 5.50909 16.6189V17.4206C5.50909 17.6287 5.67778 17.7974 5.88584 17.7974C6.09391 17.7974 6.26259 17.6287 6.26259 17.4206V16.6189C6.26259 16.4109 6.09391 16.2422 5.88584 16.2422Z" fill="#440A29"/>
<path d="M6.84869 13.3112C6.52638 13.3112 6.20425 13.3106 5.88325 13.3092C5.53644 13.3078 5.2565 13.0255 5.25794 12.6787C5.25938 12.3329 5.54025 12.0534 5.88575 12.0534H5.88838C6.86438 12.0576 7.85094 12.0553 8.82063 12.0471H8.82606C9.17038 12.0471 9.45088 12.3246 9.45381 12.6696C9.45675 13.0164 9.178 13.2999 8.83125 13.3029C8.17538 13.3084 7.51169 13.3112 6.84869 13.3112Z" fill="white"/>
<path d="M4.06276 13.3029H3.76826C3.42151 13.3029 3.14038 13.0217 3.14038 12.675C3.14038 12.3282 3.42151 12.0471 3.76826 12.0471H4.06276C4.40951 12.0471 4.69063 12.3282 4.69063 12.675C4.69063 13.0217 4.40951 13.3029 4.06276 13.3029Z" fill="white"/>
<path d="M8.16086 4.38171C8.30879 3.7559 7.92139 3.12867 7.29559 2.98074C6.66978 2.83281 6.04255 3.2202 5.89462 3.84601C5.74669 4.47181 6.13408 5.09905 6.75989 5.24698C7.38569 5.3949 8.01293 5.00751 8.16086 4.38171Z" fill="#FFE266"/>
<path d="M15.1993 6.95388C15.1993 7.22626 14.9785 7.44707 14.7061 7.44707C14.4337 7.44707 14.2129 7.22626 14.2129 6.95388C14.2129 6.68151 14.4337 6.46069 14.7061 6.46069C14.9785 6.46069 15.1993 6.68151 15.1993 6.95388Z" fill="#FFE266"/>
<path d="M19.2818 1.59464L19.6775 2.70701C19.6944 2.75464 19.7279 2.79239 19.7702 2.81145L20.7585 3.2567C20.8981 3.31964 20.8981 3.54207 20.7585 3.60501L19.7702 4.05026C19.7279 4.06932 19.6943 4.10707 19.6775 4.1547L19.2818 5.26714C19.226 5.42426 19.0283 5.42426 18.9724 5.26714L18.5768 4.1547C18.5598 4.10707 18.5263 4.06932 18.484 4.05026L17.4957 3.60501C17.3561 3.54207 17.3561 3.31964 17.4957 3.2567L18.484 2.81145C18.5263 2.79239 18.5599 2.75464 18.5768 2.70701L18.9724 1.59464C19.0283 1.43745 19.226 1.43745 19.2818 1.59464Z" fill="#FEF2A8"/>
<path d="M29.3438 5.72269L29.8874 7.22231C29.9106 7.2865 29.9568 7.33738 30.0149 7.36313L31.373 7.96338C31.5648 8.04819 31.5648 8.34806 31.373 8.43287L30.0149 9.03313C29.9568 9.05881 29.9106 9.10969 29.8874 9.17394L29.3438 10.6736C29.267 10.8854 28.9954 10.8854 28.9186 10.6736L28.375 9.17394C28.3517 9.10975 28.3056 9.05888 28.2475 9.03313L26.8894 8.43287C26.6975 8.34806 26.6975 8.04813 26.8894 7.96338L28.2475 7.36313C28.3056 7.33744 28.3517 7.28656 28.375 7.22231L28.9186 5.72269C28.9954 5.51081 29.267 5.51081 29.3438 5.72269Z" fill="#FEF2A8"/>
</g>
<defs>
<clipPath id="clip0">
<rect width="32" height="32" fill="white"/>
</clipPath>
</defs>
</svg>
