<svg width="32" height="32" viewBox="0 0 32 32" fill="none" xmlns="http://www.w3.org/2000/svg">
<g clip-path="url(#clip0)">
<path d="M16.8636 11.4401H15.0678C14.4273 11.4401 13.9081 10.9209 13.9081 10.2805V5.1201C13.9081 4.47967 14.4273 3.96048 15.0678 3.96048H16.8636C17.504 3.96048 18.0232 4.47967 18.0232 5.1201V10.2805C18.0232 10.921 17.5041 11.4401 16.8636 11.4401Z" fill="#B2E7F1"/>
<path d="M27.9127 30.8192H4.08742C2.18279 30.8192 0.638794 29.2752 0.638794 27.3706V13.4239C0.638794 11.5193 2.18279 9.97531 4.08742 9.97531H27.9126C29.8172 9.97531 31.3612 11.5193 31.3612 13.4239V27.3706C31.3613 29.2752 29.8173 30.8192 27.9127 30.8192Z" fill="#FFE266"/>
<path d="M27.9127 9.97531H24.3549C25.957 9.97531 27.2559 11.2741 27.2559 12.8763V24.0989C27.2559 25.7011 25.957 26.9999 24.3549 26.9999H3.53979C1.93761 26.9999 0.638794 25.7012 0.638794 24.0989V27.3706C0.638794 29.2752 2.18279 30.8191 4.08742 30.8191H27.9126C29.8172 30.8191 31.3612 29.2751 31.3612 27.3706V13.4239C31.3613 11.5193 29.8173 9.97531 27.9127 9.97531Z" fill="#EFAA66"/>
<path d="M12.6183 24.1254H5.12526C4.3252 24.1254 3.67657 23.4767 3.67657 22.6767V14.3844C3.67657 13.5843 4.32514 12.9357 5.12526 12.9357H12.6183C13.4184 12.9357 14.067 13.5843 14.067 14.3844V22.6767C14.067 23.4767 13.4184 24.1254 12.6183 24.1254Z" fill="white"/>
<path d="M11.5372 24.1834V23.4628C11.5372 21.9907 10.3438 20.7973 8.87168 20.7973C7.39955 20.7973 6.20618 21.9907 6.20618 23.4628V24.1834H11.5372Z" fill="#8BB6EF"/>
<path d="M9.63919 21.8076H8.13481C6.26544 21.8076 4.74994 20.2921 4.74994 18.4227C4.74994 16.5532 6.26538 15.0378 8.13481 15.0378H9.63919C11.5086 15.0378 13.0241 16.5532 13.0241 18.4227C13.0241 20.2921 11.5086 21.8076 9.63919 21.8076Z" fill="#FFC7B6"/>
<path d="M12.7133 19.874C13.1175 19.6238 13.5028 19.1269 13.508 18.58V18.1829C13.508 15.9835 11.725 14.2005 9.5256 14.2005H8.21797C6.01853 14.2005 4.23553 15.9835 4.23553 18.1829V18.58C4.2636 19.2773 4.68066 19.6495 4.97578 19.8933C6.73097 19.094 8.91372 17.7975 10.5385 16.2876C11.1128 17.6826 11.7693 18.7658 12.7133 19.874Z" fill="#B07676"/>
<path d="M27.9126 9.33656H18.662V5.12012C18.662 4.1285 17.8552 3.32175 16.8636 3.32175H15.0678C14.0762 3.32175 13.2694 4.1285 13.2694 5.12012V9.33656H4.08738C1.83356 9.33656 0 11.1701 0 13.4239V27.3706C0 29.6244 1.83356 31.4579 4.08738 31.4579H27.9126C30.1664 31.4579 31.9999 29.6243 31.9999 27.3706V13.4239C32 11.1701 30.1664 9.33656 27.9126 9.33656ZM14.5469 5.12012C14.5469 4.83293 14.7806 4.59925 15.0678 4.59925H16.8636C17.1508 4.59925 17.3845 4.83293 17.3845 5.12012V9.33656H14.547V5.12012H14.5469ZM30.7225 27.3706C30.7225 28.9199 29.4619 30.1804 27.9126 30.1804H4.08738C2.538 30.1804 1.2775 28.9199 1.2775 27.3706V13.4239C1.2775 11.8746 2.538 10.6141 4.08738 10.6141H27.9126C29.4619 10.6141 30.7224 11.8746 30.7224 13.4239V27.3706H30.7225Z" fill="#440A29"/>
<path d="M7.21369 20.3087C7.42238 20.3087 7.59157 20.1395 7.59157 19.9309C7.59157 19.7222 7.42238 19.553 7.21369 19.553C7.005 19.553 6.83582 19.7222 6.83582 19.9309C6.83582 20.1395 7.005 20.3087 7.21369 20.3087Z" fill="#440A29"/>
<path d="M10.5603 20.3087C10.769 20.3087 10.9382 20.1395 10.9382 19.9309C10.9382 19.7222 10.769 19.553 10.5603 19.553C10.3516 19.553 10.1824 19.7222 10.1824 19.9309C10.1824 20.1395 10.3516 20.3087 10.5603 20.3087Z" fill="#440A29"/>
<path d="M12.6181 24.5086C13.6282 24.5086 14.45 23.6869 14.45 22.6767V14.3844C14.45 13.3742 13.6282 12.5524 12.6181 12.5524H5.12503C4.1149 12.5524 3.29315 13.3742 3.29315 14.3844V22.6767C3.29315 23.6869 4.1149 24.5086 5.12503 24.5086H12.6181ZM13.1246 18.5581C13.0779 18.9474 12.9424 19.1831 12.7741 19.3479C11.9772 18.3645 11.4053 17.387 10.8926 16.1417C10.8448 16.0255 10.743 15.9401 10.6203 15.9132C10.4975 15.8864 10.3694 15.9213 10.2773 16.0068C8.94103 17.2487 6.9999 18.5204 5.04546 19.4387C4.85709 19.2447 4.68565 18.9777 4.61853 18.5513V18.1829C4.61853 16.1982 6.23315 14.5836 8.21778 14.5836H9.5254C11.51 14.5836 13.1246 16.1982 13.1246 18.1829V18.5581ZM10.3967 16.9284C10.9069 18.0636 11.4882 18.9966 12.272 19.9444C11.7661 20.89 10.769 21.5349 9.62384 21.5349H8.1194C7.01946 21.5349 6.05659 20.9397 5.53403 20.0548C7.31428 19.2006 9.07471 18.0681 10.3967 16.9284ZM7.01684 22.1362C7.36578 22.2432 7.73584 22.3014 8.11934 22.3014H9.62378C10.0073 22.3014 10.3774 22.2435 10.7263 22.1364C10.9948 22.5105 11.1538 22.9681 11.1538 23.4628V23.7421H6.58928V23.4628C6.58928 22.9681 6.74828 22.5102 7.01684 22.1362ZM12.6181 23.7421H11.9203V23.4628C11.9203 22.8627 11.7454 22.3029 11.4445 21.8308C12.1419 21.4439 12.7042 20.8422 13.0418 20.1155C13.3298 19.9123 13.5414 19.6686 13.6835 19.3736V22.6767C13.6835 23.2642 13.2055 23.7421 12.6181 23.7421ZM5.12503 13.3189H12.6182C13.2056 13.3189 13.6835 13.7969 13.6835 14.3844V16.8537C13.1198 15.0945 11.4693 13.8172 9.5254 13.8172H8.21778C6.2739 13.8172 4.62334 15.0945 4.05965 16.8537V14.3844C4.05959 13.7969 4.53753 13.3189 5.12503 13.3189ZM4.05959 22.6767V19.3384C4.24903 19.75 4.51715 20.0117 4.7314 20.1887C4.73353 20.1904 4.73603 20.1916 4.73815 20.1934C5.07921 20.8853 5.62596 21.4584 6.29865 21.8313C5.99796 22.3034 5.82278 22.8627 5.82278 23.4627V23.7421H5.12503C4.53753 23.7421 4.05959 23.2642 4.05959 22.6767Z" fill="#440A29"/>
<path d="M26.854 26.3612C25.6296 26.3514 24.3672 26.3449 22.9947 26.3413C22.9942 26.3413 22.9936 26.3413 22.993 26.3413C22.6411 26.3413 22.3552 26.6262 22.3543 26.9784C22.3534 27.3312 22.6386 27.6179 22.9914 27.6188C24.3615 27.6224 25.6216 27.6289 26.8437 27.6387H26.849C27.1994 27.6387 27.4848 27.3561 27.4876 27.0051C27.4904 26.6523 27.2067 26.3641 26.854 26.3612Z" fill="#440A29"/>
<path d="M20.2027 26.3382C19.0142 26.3374 18.501 26.3386 17.485 26.3409L17.003 26.342C16.6503 26.3429 16.3649 26.6295 16.3657 26.9822C16.3665 27.3346 16.6523 27.6196 17.0045 27.6196H17.0059L17.488 27.6184C18.5026 27.6161 19.0156 27.6152 20.2018 27.6157H20.2022C20.5548 27.6157 20.8407 27.33 20.841 26.9774C20.8412 26.6246 20.5554 26.3384 20.2027 26.3382Z" fill="#440A29"/>
<path d="M14.2148 26.3464C14.2143 26.3464 14.2138 26.3464 14.2133 26.3464C12.8384 26.3496 11.4173 26.3546 9.98958 26.3612C9.63677 26.3629 9.35214 26.6502 9.35377 27.003C9.35539 27.3547 9.64108 27.6387 9.99245 27.6387H9.99545C11.4223 27.6321 12.8423 27.6271 14.2162 27.6239C14.569 27.6231 14.8543 27.3365 14.8535 26.9837C14.8528 26.6314 14.567 26.3464 14.2148 26.3464Z" fill="#440A29"/>
<path d="M6.86648 26.3618C6.26504 26.3349 5.72729 26.3348 5.1226 26.3618C4.77017 26.3775 4.49723 26.676 4.51298 27.0284C4.52873 27.3809 4.82842 27.654 5.1796 27.6381C5.75229 27.6125 6.23967 27.6125 6.80917 27.6381C6.81892 27.6385 6.8286 27.6387 6.83835 27.6387C7.17792 27.6387 7.4606 27.3712 7.47598 27.0286C7.49173 26.6762 7.21885 26.3777 6.86648 26.3618Z" fill="#440A29"/>
<path d="M27.2558 14.7365H17.4113C17.1996 14.7365 17.028 14.9082 17.028 15.1198C17.028 15.3314 17.1996 15.503 17.4113 15.503H27.2558C27.4674 15.503 27.639 15.3314 27.639 15.1198C27.639 14.9082 27.4674 14.7365 27.2558 14.7365Z" fill="#440A29"/>
<path d="M27.2558 20.5892H17.4113C17.1996 20.5892 17.028 20.7609 17.028 20.9725C17.028 21.1841 17.1996 21.3557 17.4113 21.3557H27.2558C27.4674 21.3557 27.639 21.1841 27.639 20.9725C27.639 20.7609 27.4674 20.5892 27.2558 20.5892Z" fill="#440A29"/>
<path d="M17.4113 18.4294H22.993C23.2046 18.4294 23.3763 18.2578 23.3763 18.0462C23.3763 17.8346 23.2046 17.6629 22.993 17.6629H17.4113C17.1996 17.6629 17.028 17.8346 17.028 18.0462C17.028 18.2578 17.1996 18.4294 17.4113 18.4294Z" fill="#440A29"/>
<path d="M23.4914 2.18644C23.6419 1.54982 23.2478 0.911751 22.6112 0.761266C21.9746 0.61078 21.3365 1.00487 21.186 1.64149C21.0355 2.27811 21.4296 2.91618 22.0662 3.06667C22.7028 3.21715 23.3409 2.82306 23.4914 2.18644Z" fill="#FFE266"/>
<path d="M7.82872 6.20334C7.87305 5.92987 7.6873 5.67223 7.41382 5.6279C7.14035 5.58357 6.88272 5.76933 6.83839 6.0428C6.79406 6.31627 6.97981 6.5739 7.25328 6.61823C7.52676 6.66257 7.78439 6.47681 7.82872 6.20334Z" fill="#FFE266"/>
<path d="M29.1794 4.03388L29.5818 5.1655C29.5991 5.21394 29.6332 5.25231 29.6762 5.27175L30.6817 5.72475C30.8237 5.78875 30.8237 6.01506 30.6817 6.07906L29.6762 6.53206C29.6332 6.55144 29.599 6.58988 29.5818 6.63831L29.1794 7.76994C29.1225 7.92981 28.9215 7.92981 28.8646 7.76994L28.4622 6.63831C28.4449 6.58988 28.4108 6.5515 28.3678 6.53206L27.3623 6.07906C27.2203 6.01506 27.2203 5.78875 27.3623 5.72475L28.3678 5.27175C28.4108 5.25238 28.445 5.21394 28.4622 5.1655L28.8646 4.03388C28.9215 3.874 29.1225 3.874 29.1794 4.03388Z" fill="#FEF2A8"/>
<path d="M3.35054 0.703686L3.90354 2.22925C3.92723 2.29456 3.9741 2.34631 4.03323 2.3725L5.41479 2.98319C5.60998 3.06944 5.60998 3.37456 5.41479 3.46081L4.03323 4.07144C3.9741 4.09756 3.92723 4.14937 3.90354 4.21469L3.35054 5.74025C3.27241 5.95575 2.9961 5.95575 2.91798 5.74025L2.36498 4.21469C2.34129 4.14937 2.29441 4.09762 2.23529 4.07144L0.853788 3.46075C0.658601 3.3745 0.658601 3.06937 0.853788 2.98312L2.23529 2.37244C2.29441 2.34631 2.34129 2.2945 2.36498 2.22919L2.91798 0.703624C2.9961 0.488186 3.27241 0.488186 3.35054 0.703686Z" fill="#FEF2A8"/>
</g>
<defs>
<clipPath id="clip0">
<rect width="32" height="32" fill="white"/>
</clipPath>
</defs>
</svg>
