<svg width="32" height="32" viewBox="0 0 32 32" fill="none" xmlns="http://www.w3.org/2000/svg">
<g clip-path="url(#clip0)">
<path d="M26.4004 31.3951H5.94456C4.826 31.3951 3.98212 30.3796 4.18687 29.28L7.32744 15.3336C7.48506 14.487 8.22394 13.8731 9.08512 13.8731H29.541C30.6596 13.8731 31.5034 14.8886 31.2986 15.9883L28.1581 29.9346C28.0004 30.7811 27.2616 31.3951 26.4004 31.3951Z" fill="#BDF4E3"/>
<path d="M26.4004 31.3951H5.94456C4.826 31.3951 3.98212 30.3796 4.18687 29.28L7.32744 15.3336C7.48506 14.487 8.22394 13.8731 9.08512 13.8731H29.541C30.6596 13.8731 31.5034 14.8886 31.2986 15.9883L28.1581 29.9346C28.0004 30.7811 27.2616 31.3951 26.4004 31.3951Z" fill="#B1B7E3"/>
<path d="M25.4007 31.3034H4.94308C4.20583 31.3034 3.6449 30.6416 3.76577 29.9143L6.35165 13.0214C6.44733 12.4456 6.94533 12.0236 7.52896 12.0236H27.9866C28.7238 12.0236 29.2848 12.6854 29.1639 13.4127L26.578 30.3056C26.4823 30.8813 25.9843 31.3034 25.4007 31.3034Z" fill="white"/>
<path d="M25.4007 31.3034H4.94308C4.20583 31.3034 3.6449 30.6416 3.76577 29.9143L6.35165 13.0214C6.44733 12.4456 6.94533 12.0236 7.52896 12.0236H27.9866C28.7238 12.0236 29.2848 12.6854 29.1639 13.4127L26.578 30.3056C26.4823 30.8813 25.9843 31.3034 25.4007 31.3034Z" fill="#FFBFFC"/>
<path d="M23.8153 31.3034H2.38471C1.86302 31.3034 1.46421 30.8383 1.54377 30.3227L3.72733 11.6666C3.79139 11.2516 4.14846 10.9454 4.56827 10.9454H25.9988C26.5205 10.9454 26.9194 11.4106 26.8398 11.9261L24.6562 30.5823C24.5922 30.9972 24.2351 31.3034 23.8153 31.3034Z" fill="white"/>
<path d="M22.8406 31.3034H2.56908C1.51376 31.3034 0.658264 30.4479 0.658264 29.3926V15.094C0.658264 14.0387 1.51376 13.1832 2.56908 13.1832H22.8406C23.8959 13.1832 24.7514 14.0387 24.7514 15.094V29.3926C24.7514 30.4479 23.8959 31.3034 22.8406 31.3034Z" fill="#BDF4E3"/>
<path d="M22.8406 13.1832H19.7721C20.6814 13.1832 21.4186 13.9203 21.4186 14.8297V27.1503C21.4186 28.0596 20.6814 28.7968 19.7721 28.7968H2.30476C1.39545 28.7968 0.658264 28.0596 0.658264 27.1503V29.3926C0.658264 30.4479 1.51376 31.3034 2.56908 31.3034H22.8406C23.8959 31.3034 24.7514 30.4479 24.7514 29.3926V15.094C24.7514 14.0387 23.8958 13.1832 22.8406 13.1832Z" fill="#B1B7E3"/>
<path d="M31.4015 14.1149C30.9442 13.5645 30.2731 13.2474 29.5582 13.2424C29.5645 12.8639 29.4345 12.4938 29.186 12.2006C28.8867 11.8474 28.4495 11.6449 27.9866 11.6449H27.4728C27.4423 11.3475 27.3227 11.0633 27.1239 10.8315C26.842 10.5028 26.4319 10.3143 25.9989 10.3143H4.56835C3.83197 10.3143 3.21597 10.8425 3.10372 11.5702C3.10253 11.5779 3.10153 11.5855 3.1006 11.5931L2.98835 12.552H2.5691C1.16747 12.552 0.0272217 13.6924 0.0272217 15.0939V29.3926C0.0272217 30.7942 1.16753 31.9344 2.5691 31.9344H26.4005C27.561 31.9344 28.5582 31.2009 28.7762 30.0623L31.9144 16.1267C31.9162 16.1191 31.9177 16.1114 31.9192 16.1037C32.0512 15.3945 31.8625 14.6697 31.4015 14.1149ZM28.6083 12.6902C28.7633 12.8732 28.8298 13.1139 28.7897 13.3554L26.2045 30.2435C26.1687 30.4591 26.0512 30.642 25.8871 30.764H25.2642C25.2702 30.7358 25.2756 30.7074 25.28 30.6786C25.2812 30.6709 25.2822 30.6633 25.2832 30.6557L27.4195 12.4022H27.9866C28.2265 12.4022 28.4532 12.5072 28.6083 12.6902ZM24.1203 21.0879L17.0256 13.8142H22.8406C23.5462 13.8142 24.1203 14.3883 24.1203 15.094V21.0879H24.1203ZM4.35241 11.755C4.37216 11.6511 4.46172 11.5764 4.56835 11.5764H25.999C26.0869 11.5764 26.1412 11.6245 26.1658 11.6532C26.1903 11.6818 26.2296 11.7429 26.2162 11.8298C26.215 11.8374 26.214 11.8451 26.2131 11.8527L25.3825 18.9493V15.094C25.3825 13.6924 24.2422 12.5521 22.8406 12.5521H4.2591L4.35241 11.755ZM2.5691 13.8142H8.19916L1.28941 21.0407V15.094C1.28941 14.3883 1.86347 13.8142 2.5691 13.8142ZM2.5691 30.6724C1.86347 30.6724 1.28935 30.0983 1.28935 29.3926V22.8671L9.8716 13.8915C9.89485 13.8672 9.91503 13.8411 9.93366 13.8143H15.2755C15.2953 13.8427 15.317 13.8704 15.342 13.896L24.0589 22.8325C24.0783 22.8524 24.099 22.8702 24.1203 22.887V29.3926C24.1203 30.0982 23.5462 30.6724 22.8405 30.6724H2.5691ZM30.6802 15.8622L27.5425 29.7959C27.5407 29.8036 27.5392 29.8112 27.5377 29.819C27.4663 30.2027 27.2098 30.512 26.8712 30.6632C26.9071 30.5675 26.935 30.4674 26.9524 30.3629L29.3799 14.5041H29.541C29.886 14.5041 30.2103 14.6563 30.4308 14.9216C30.649 15.1842 30.7396 15.5264 30.6802 15.8622Z" fill="#440A29"/>
<path d="M15.2258 24.5752C15.0167 24.5752 14.8472 24.7448 14.8472 24.9538V25.7596C14.8472 25.9687 15.0167 26.1382 15.2258 26.1382C15.4349 26.1382 15.6044 25.9686 15.6044 25.7596V24.9538C15.6044 24.7447 15.4349 24.5752 15.2258 24.5752Z" fill="#440A29"/>
<path d="M21.0503 24.0751C20.8412 24.0751 20.6717 24.2447 20.6717 24.4538V25.2595C20.6717 25.4686 20.8413 25.6381 21.0503 25.6381C21.2594 25.6381 21.4289 25.4686 21.4289 25.2595V24.4538C21.429 24.2447 21.2594 24.0751 21.0503 24.0751Z" fill="#440A29"/>
<path d="M17.4411 25.9229C17.2319 25.9229 17.0624 26.0924 17.0624 26.3015V27.1073C17.0624 27.3164 17.232 27.4859 17.4411 27.4859C17.6501 27.4859 17.8197 27.3163 17.8197 27.1073V26.3015C17.8198 26.0924 17.6502 25.9229 17.4411 25.9229Z" fill="#440A29"/>
<path d="M4.15616 23.8489C4.00028 23.8489 3.8441 23.7915 3.7221 23.6758C3.46916 23.436 3.45853 23.0366 3.69828 22.7836C3.97422 22.4926 4.26491 22.2204 4.54603 21.9571C4.87697 21.6473 5.18954 21.3546 5.47616 21.0371C5.70972 20.7784 6.10872 20.7579 6.36747 20.9914C6.62622 21.225 6.6466 21.624 6.4131 21.8828C6.09085 22.2398 5.7441 22.5644 5.40872 22.8785C5.12879 23.1406 4.86435 23.3882 4.61428 23.652C4.49016 23.7829 4.32328 23.8489 4.15616 23.8489Z" fill="white"/>
<path d="M7.99791 20.0563C7.83503 20.0563 7.67222 19.9936 7.54872 19.8685C7.30384 19.6205 7.30647 19.2209 7.55453 18.9761L7.78428 18.7493C8.03228 18.5044 8.43184 18.5069 8.67672 18.7549C8.92166 19.0029 8.91909 19.4024 8.67109 19.6473L8.44122 19.8743C8.31828 19.9956 8.15803 20.0563 7.99791 20.0563Z" fill="white"/>
<path d="M19.7544 2.73892C19.9031 2.10996 19.5137 1.47956 18.8848 1.33089C18.2558 1.18221 17.6254 1.57156 17.4767 2.20052C17.328 2.82948 17.7174 3.45988 18.3464 3.60856C18.9753 3.75723 19.6057 3.36788 19.7544 2.73892Z" fill="#78EAC4"/>
<path d="M26.6535 6.30699C26.9065 6.20214 27.0265 5.91208 26.9217 5.65913C26.8168 5.40617 26.5268 5.28611 26.2738 5.39096C26.0209 5.49581 25.9008 5.78587 26.0056 6.03883C26.1105 6.29178 26.4006 6.41184 26.6535 6.30699Z" fill="#78EAC4"/>
<path d="M9.28885 4.21657L9.68648 5.33463C9.70348 5.3825 9.73723 5.42044 9.77973 5.43957L10.7731 5.88713C10.9134 5.95038 10.9134 6.17394 10.7731 6.23719L9.77973 6.68475C9.73723 6.70388 9.70348 6.74182 9.68648 6.78969L9.28885 7.90775C9.23266 8.06569 9.03404 8.06569 8.97785 7.90775L8.58023 6.78969C8.56323 6.74182 8.52954 6.70388 8.48698 6.68475L7.4936 6.23719C7.35329 6.17394 7.35329 5.95038 7.4936 5.88713L8.48698 5.43957C8.52954 5.42038 8.56323 5.38244 8.58023 5.33463L8.97785 4.21657C9.03404 4.05863 9.23273 4.05863 9.28885 4.21657Z" fill="#BDF4E3"/>
<path d="M30.4105 6.1806L30.8081 7.29867C30.8251 7.34654 30.8588 7.38448 30.9014 7.4036L31.8947 7.85117C32.0351 7.91442 32.0351 8.13798 31.8947 8.20123L30.9014 8.64879C30.8588 8.66798 30.8251 8.70585 30.8081 8.75373L30.4105 9.87179C30.3543 10.0297 30.1557 10.0297 30.0995 9.87179L29.7019 8.75373C29.6849 8.70585 29.6511 8.66792 29.6086 8.64879L28.6153 8.20123C28.475 8.13798 28.475 7.91442 28.6153 7.85117L29.6086 7.4036C29.6512 7.38442 29.6849 7.34648 29.7019 7.29867L30.0995 6.1806C30.1556 6.0226 30.3543 6.0226 30.4105 6.1806Z" fill="#BDF4E3"/>
<path d="M2.61141 0.225186L3.15778 1.73244C3.18116 1.79694 3.22747 1.84812 3.28591 1.87394L4.65085 2.47725C4.84366 2.5625 4.84366 2.86394 4.65085 2.94912L3.28591 3.5525C3.22747 3.57831 3.18116 3.6295 3.15778 3.694L2.61141 5.20125C2.53422 5.41419 2.26122 5.41419 2.18403 5.20125L1.63766 3.694C1.61428 3.6295 1.56797 3.57831 1.50953 3.5525L0.144595 2.94919C-0.0482798 2.86394 -0.0482798 2.5625 0.144595 2.47731L1.50953 1.874C1.56797 1.84819 1.61428 1.797 1.63766 1.7325L2.18403 0.225249C2.26122 0.0122486 2.53422 0.0122485 2.61141 0.225186Z" fill="#BDF4E3"/>
</g>
<defs>
<clipPath id="clip0">
<rect width="32" height="32" fill="white"/>
</clipPath>
</defs>
</svg>
