<svg width="28" height="28" viewBox="0 0 28 28" fill="none" xmlns="http://www.w3.org/2000/svg">
<path d="M5.70107 2.69424C4.1375 2.81451 2.81448 4.01726 2.6942 5.70111C2.45365 8.10661 2.33338 11.4743 2.33338 14.0001C2.33338 16.5259 2.45365 19.8936 2.6942 22.2991C2.6942 23.141 3.05502 23.8626 3.6564 24.3437C4.25777 24.8248 4.85915 25.1856 5.70107 25.3059C8.10657 25.5465 11.4743 25.6667 14 25.6667C16.5258 25.6667 19.8935 25.4262 22.299 25.3059C23.8626 25.1857 25.1856 23.9829 25.3059 22.2991C25.5464 19.8936 25.6667 16.5259 25.6667 14.0001C25.6667 11.4743 25.4262 8.10661 25.3059 5.70111C25.1856 4.13754 23.9829 2.81452 22.299 2.69424C19.8935 2.45369 16.5258 2.33341 14 2.33341C11.4743 2.33341 8.10657 2.45369 5.70107 2.69424ZM13.9596 8.22689L19.4124 12.5568C19.653 12.6771 19.7732 12.9176 19.7732 13.2784C19.7732 13.519 19.653 13.6393 19.5327 13.8798C19.1719 14.2406 18.6908 14.3609 18.3299 14.0001L14.9622 11.1135L14.9622 18.8111C14.9622 19.2922 14.6014 19.7733 14 19.7733C13.3987 19.7733 13.0378 19.4125 13.0378 18.8111L13.0378 11.2338L9.67014 14.1204C9.30932 14.4812 8.70795 14.3609 8.4674 14.0001C8.10657 13.6393 8.22685 13.0379 8.58767 12.7973L13.9596 8.22689Z" fill="#0084F4"/>
</svg>
