<svg width="28" height="28" viewBox="0 0 28 28" fill="none" xmlns="http://www.w3.org/2000/svg">
<path d="M22.2989 25.3058C23.8625 25.1855 25.1855 23.9827 25.3058 22.2989C25.5464 19.8934 25.6666 16.5257 25.6666 13.9999C25.6666 11.4741 25.5464 8.10645 25.3058 5.70095C25.3058 4.85902 24.945 4.13738 24.3436 3.65628C23.7422 3.17518 23.1409 2.81435 22.2989 2.69408C19.8934 2.45353 16.5257 2.33325 14 2.33325C11.4742 2.33325 8.10649 2.5738 5.70099 2.69408C4.13741 2.81435 2.81439 4.0171 2.69412 5.70095C2.45357 8.10645 2.33329 11.4741 2.33329 13.9999C2.33329 16.5257 2.57384 19.8934 2.69412 22.2989C2.81439 23.8625 4.01714 25.1855 5.70099 25.3058C8.10649 25.5463 11.4742 25.6666 14 25.6666C16.5257 25.6666 19.8934 25.5463 22.2989 25.3058ZM14.0404 19.7731L8.58759 15.4432C8.34704 15.3229 8.22676 15.0824 8.22676 14.7216C8.22676 14.481 8.34704 14.3607 8.46731 14.1202C8.82814 13.7594 9.30924 13.6391 9.67006 13.9999L13.0378 16.8865L13.0378 9.18892C13.0378 8.70782 13.3986 8.22672 14 8.22672C14.6013 8.22672 14.9622 8.58755 14.9622 9.18892L14.9622 16.7662L18.3299 13.8796C18.6907 13.5188 19.2921 13.6391 19.5326 13.9999C19.8934 14.3607 19.7732 14.9621 19.4123 15.2027L14.0404 19.7731Z" fill="#0084F4"/>
</svg>
