<svg width="38" height="38" viewBox="0 0 38 38" fill="none" xmlns="http://www.w3.org/2000/svg">
<path d="M33.25 15.8334H30.0834V6.33335H31.6667V3.16669H6.33335V6.33335H7.91669V15.8334H4.75002C4.33009 15.8334 3.92737 16.0002 3.63043 16.2971C3.3335 16.594 3.16669 16.9968 3.16669 17.4167V31.6667H34.8334V17.4167C34.8334 16.9968 34.6665 16.594 34.3696 16.2971C34.0727 16.0002 33.6699 15.8334 33.25 15.8334ZM22.1667 28.5V22.1667H15.8334V28.5H11.0834V6.33335H26.9167V28.5H22.1667Z" fill="#FF872B"/>
<path d="M14.25 9.5H17.4167V12.6667H14.25V9.5ZM20.5833 9.5H23.75V12.6667H20.5833V9.5ZM14.25 15.8333H17.4167V19H14.25V15.8333ZM20.5833 15.8333H23.75V19H20.5833V15.8333Z" fill="#FF872B"/>
</svg>
