<svg width="16" height="16" viewBox="0 0 16 16" fill="none" xmlns="http://www.w3.org/2000/svg">
<rect x="2" y="4" width="12" height="10" rx="2" stroke="#23262F" stroke-width="2"/>
<path d="M2 6.66667C2 6.04669 2 5.7367 2.06815 5.48236C2.25308 4.79218 2.79218 4.25308 3.48236 4.06815C3.7367 4 4.04669 4 4.66667 4H11.3333C11.9533 4 12.2633 4 12.5176 4.06815C13.2078 4.25308 13.7469 4.79218 13.9319 5.48236C14 5.7367 14 6.04669 14 6.66667H2Z" fill="#23262F"/>
<path d="M4.66669 2L4.66669 4" stroke="#23262F" stroke-width="2" stroke-linecap="round"/>
<path d="M11.3333 2L11.3333 4" stroke="#23262F" stroke-width="2" stroke-linecap="round"/>
<rect x="4.66669" y="8" width="2.66667" height="1.33333" rx="0.5" fill="#23262F"/>
<rect x="4.66669" y="10.667" width="2.66667" height="1.33333" rx="0.5" fill="#23262F"/>
<rect x="8.66669" y="8" width="2.66667" height="1.33333" rx="0.5" fill="#23262F"/>
<rect x="8.66669" y="10.667" width="2.66667" height="1.33333" rx="0.5" fill="#23262F"/>
</svg>
