<svg width="28" height="28" viewBox="0 0 28 28" fill="none" xmlns="http://www.w3.org/2000/svg">
<rect x="0.5" y="0.5" width="27" height="27" rx="7.5" stroke="#D70000"/>
<path d="M18.626 11.798C18.759 11.798 18.8796 11.856 18.9749 11.954C19.0637 12.0587 19.1084 12.1887 19.0955 12.326C19.0955 12.3713 18.7402 16.8646 18.5372 18.7559C18.4101 19.9166 17.6619 20.6213 16.5396 20.6406C15.6766 20.6599 14.8331 20.6666 14.0025 20.6666C13.1207 20.6666 12.2584 20.6599 11.4214 20.6406C10.3367 20.6146 9.58779 19.8973 9.46719 18.7559C9.25842 16.858 8.9096 12.3713 8.90311 12.326C8.89663 12.1887 8.94072 12.0587 9.03019 11.954C9.11837 11.856 9.24545 11.798 9.37901 11.798H18.626ZM15.3765 7.33325C15.9659 7.33325 16.4923 7.74458 16.6447 8.33124L16.7536 8.8179C16.8418 9.21457 17.1854 9.49523 17.5809 9.49523H19.5247C19.7841 9.49523 20 9.71056 20 9.98456V10.2379C20 10.5052 19.7841 10.7272 19.5247 10.7272H8.4759C8.21591 10.7272 8 10.5052 8 10.2379V9.98456C8 9.71056 8.21591 9.49523 8.4759 9.49523H10.4197C10.8146 9.49523 11.1582 9.21457 11.247 8.81857L11.3488 8.36391C11.507 7.74458 12.0277 7.33325 12.6235 7.33325H15.3765Z" fill="#D70000"/>
</svg>
