<svg width="21" height="21" viewBox="0 0 21 21" fill="none" xmlns="http://www.w3.org/2000/svg">
<path fill-rule="evenodd" clip-rule="evenodd" d="M10.5 20.7619L16.0685 15.1934C17.1698 14.0921 17.9198 12.6889 18.2237 11.1613C18.5275 9.6337 18.3716 8.05031 17.7755 6.61135C17.1795 5.17238 16.1701 3.94248 14.8751 3.07717C13.5801 2.21186 12.0575 1.75 10.5 1.75C8.94248 1.75 7.41993 2.21186 6.1249 3.07717C4.82986 3.94248 3.8205 5.17238 3.22446 6.61135C2.62842 8.05031 2.47246 9.6337 2.77631 11.1613C3.08016 12.6889 3.83017 14.0921 4.9315 15.1934L10.5 20.7619Z" fill="#0084F4"/>
<path d="M11.4375 7C11.4375 6.72386 11.2136 6.5 10.9375 6.5C10.6614 6.5 10.4375 6.72386 10.4375 7L11.4375 7ZM10.4375 13.125C10.4375 13.4011 10.6614 13.625 10.9375 13.625C11.2136 13.625 11.4375 13.4011 11.4375 13.125L10.4375 13.125ZM10.4375 7L10.4375 13.125L11.4375 13.125L11.4375 7L10.4375 7Z" fill="white"/>
<path d="M14 10.5625C14.2761 10.5625 14.5 10.3386 14.5 10.0625C14.5 9.78636 14.2761 9.5625 14 9.5625L14 10.5625ZM7.875 9.5625C7.59886 9.5625 7.375 9.78636 7.375 10.0625C7.375 10.3386 7.59886 10.5625 7.875 10.5625L7.875 9.5625ZM14 9.5625L7.875 9.5625L7.875 10.5625L14 10.5625L14 9.5625Z" fill="white"/>
</svg>
