<svg width="22" height="21" viewBox="0 0 22 21" fill="none" xmlns="http://www.w3.org/2000/svg">
<path d="M8.40833 16.2985C8.40833 15.1621 8.40722 14.0267 8.40833 12.8903C8.40945 12.0545 8.72152 11.6311 9.56714 11.4819C10.4978 11.3183 11.4418 11.221 12.3803 11.1038C14.256 10.8706 16.1307 10.6218 18.0098 10.4195C19.2738 10.2835 20.2872 10.7843 21.0221 11.7958C22.3162 13.579 22.324 16.9176 21.0567 18.7261C20.7234 19.2015 20.2794 19.4502 19.6843 19.5298C17.719 19.7929 15.7605 20.1003 13.7974 20.3833C12.4216 20.5823 11.0492 20.8045 9.66781 20.9504C8.75396 21.0466 8.45867 20.7149 8.46091 19.815C8.46538 18.6432 8.46202 17.4703 8.46202 16.2985C8.44413 16.2985 8.42623 16.2985 8.40833 16.2985Z" fill="white"/>
<path d="M8.40832 5.10432C8.40832 4.20556 8.40609 3.3068 8.40944 2.40914C8.4128 1.58113 8.86469 1.09361 9.7103 0.990805C12.2717 0.676846 14.8343 0.362888 17.3958 0.0456134C19.6127 -0.229653 20.8129 0.748703 21.4359 2.77064C21.9404 4.40676 21.8956 6.0672 21.2077 7.66573C20.8174 8.57334 20.1474 9.08186 19.0948 9.18136C17.6922 9.31401 16.3018 9.57159 14.907 9.77942C13.1274 10.0436 11.349 10.3222 9.56713 10.5698C8.91614 10.6605 8.48886 10.2548 8.48215 9.56054C8.46761 8.07587 8.47767 6.5912 8.47767 5.10653C8.45418 5.10432 8.43069 5.10432 8.40832 5.10432Z" fill="white"/>
<path d="M7.54589 6.01634C7.54589 7.27991 7.54813 8.54459 7.54589 9.80816C7.54477 10.4936 7.35238 10.6693 6.6835 10.5787C5.01128 10.3543 3.33907 10.1221 1.66686 9.8966C1.31788 9.84906 0.963302 9.84022 0.618793 9.77389C0.201579 9.6954 -0.000875964 9.44666 0.00136111 9.00005C0.013665 6.38004 0.013665 3.76114 0.00695379 1.14114C0.00471672 0.659146 0.161312 0.419256 0.697091 0.488901C2.53708 0.727687 4.37931 0.950995 6.22042 1.17983C6.38597 1.20083 6.55151 1.21521 6.71817 1.23068C7.30317 1.28596 7.54141 1.53027 7.54365 2.11618C7.54924 3.41513 7.54477 4.71628 7.54589 6.01634Z" fill="white"/>
<path d="M0.00701423 15.3953C0.00701423 14.0941 0.00365862 12.793 0.00813276 11.4929C0.0103698 10.8727 0.14795 10.7346 0.775449 10.8097C2.82013 11.0574 4.86258 11.3249 6.90615 11.5814C7.33007 11.6344 7.53812 11.8997 7.53924 12.2845C7.5493 14.9774 7.54818 17.6715 7.537 20.3645C7.53588 20.7171 7.34685 20.9669 6.94194 20.915C4.88271 20.6497 2.82461 20.3711 0.764263 20.1091C0.230721 20.0417 -0.00976382 19.7929 0.000303009 19.2424C0.0226737 17.9611 0.00701423 16.6777 0.00701423 15.3953Z" fill="white"/>
</svg>
