<svg width="150" height="45" viewBox="0 0 150 45" fill="none" xmlns="http://www.w3.org/2000/svg">
<path d="M17.9686 34.8299C17.9686 32.4013 17.9662 29.9751 17.9686 27.5465C17.971 25.7605 18.6379 24.8557 20.445 24.5368C22.4337 24.1871 24.4511 23.9792 26.4566 23.7288C30.4651 23.2304 34.4713 22.6988 38.487 22.2665C41.1881 21.9759 43.3537 23.0461 44.9241 25.2077C47.6897 29.0183 47.7064 36.1528 44.9982 40.0177C44.2859 41.0336 43.337 41.5651 42.0653 41.7352C37.8655 42.2975 33.6801 42.9542 29.4851 43.559C26.545 43.9843 23.6121 44.4591 20.6601 44.7709C18.7072 44.9765 18.0762 44.2677 18.0809 42.3447C18.0905 39.8406 18.0833 37.334 18.0833 34.8299C18.0451 34.8299 18.0068 34.8299 17.9686 34.8299Z" fill="#FD4D04"/>
<path d="M17.9685 10.9079C17.9685 8.98728 17.9638 7.06663 17.9709 5.14834C17.9781 3.37888 18.9438 2.33705 20.7509 2.11735C26.2247 1.44642 31.7009 0.775492 37.1747 0.0974758C41.9123 -0.490768 44.4771 1.59998 45.8085 5.92085C46.8865 9.41724 46.7909 12.9656 45.3209 16.3817C44.4866 18.3212 43.0548 19.4079 40.8056 19.6206C37.8081 19.904 34.837 20.4545 31.8562 20.8986C28.0533 21.4632 24.2527 22.0586 20.4449 22.5878C19.0537 22.7815 18.1406 21.9145 18.1263 20.4309C18.0952 17.2581 18.1167 14.0854 18.1167 10.9127C18.0665 10.9079 18.0163 10.9079 17.9685 10.9079Z" fill="#FD4D04"/>
<path d="M16.1256 12.857C16.1256 15.5572 16.1303 18.2598 16.1256 20.9601C16.1232 22.4248 15.712 22.8004 14.2826 22.6067C10.7091 22.1271 7.1356 21.631 3.56208 21.1491C2.8163 21.0475 2.05858 21.0286 1.32236 20.8868C0.430774 20.7191 -0.00187279 20.1876 0.00290783 19.2331C0.0292013 13.6342 0.0292013 8.0376 0.0148594 2.43866C0.0100788 1.40864 0.344722 0.895993 1.48968 1.04483C5.42174 1.55511 9.35859 2.03232 13.293 2.52134C13.6468 2.56623 14.0006 2.59694 14.3567 2.63001C15.6069 2.74813 16.116 3.27023 16.1208 4.52232C16.1327 7.29817 16.1232 10.0787 16.1256 12.857Z" fill="#FD4D04"/>
<path d="M0.0149894 32.8997C0.0149894 30.1192 0.00781847 27.3386 0.0173797 24.5604C0.0221603 23.2351 0.316169 22.9398 1.65713 23.1004C6.02662 23.6296 10.3913 24.2013 14.7584 24.7494C15.6644 24.8628 16.109 25.4297 16.1113 26.2519C16.1329 32.0067 16.1305 37.764 16.1066 43.5188C16.1042 44.2724 15.7002 44.8064 14.8349 44.6953C10.4344 44.1283 6.03618 43.533 1.63323 42.9731C0.493052 42.829 -0.0208653 42.2975 0.000647531 41.121C0.0484538 38.3829 0.0149894 35.6401 0.0149894 32.8997Z" fill="#FD4D04"/>
<path d="M61.881 12.1104C64.5677 12.7766 64.9979 14.6028 64.9932 16.677C64.9884 18.2385 65.0959 19.8048 64.7565 21.3546C64.4625 22.687 63.6785 23.4595 62.3112 23.6745C59.548 24.1115 56.7609 23.828 53.9882 23.9154C53.0751 23.9438 53.2448 23.2965 53.2448 22.7768C53.2376 18.3141 53.24 13.8515 53.24 9.3889C53.24 7.27452 53.2687 5.16015 53.2233 3.04815C53.2065 2.27327 53.3762 1.91654 54.2606 1.95434C56.3235 2.04175 58.3911 1.99214 60.4516 2.09136C62.5909 2.19531 64.1016 3.54426 64.4027 5.61374C64.5749 6.79968 64.7709 7.97144 64.6203 9.2188C64.429 10.7756 63.3845 11.4253 61.881 12.1104ZM58.0134 17.0573C58.0158 17.0573 58.0182 17.0573 58.0206 17.0573C58.0206 17.7991 57.9967 18.5433 58.0302 19.2851C58.0493 19.7009 57.8055 20.3127 58.5871 20.3364C59.2755 20.3576 59.9448 20.1781 59.9783 19.389C60.0452 17.8298 60.05 16.2636 59.9735 14.7044C59.9353 13.9366 59.2301 13.9011 58.611 13.9035C57.9346 13.9059 58.0278 14.4161 58.0182 14.8296C58.0015 15.5737 58.0134 16.3155 58.0134 17.0573ZM58.0158 7.98325C58.0158 8.56677 58.0063 9.14793 58.0182 9.73145C58.0278 10.1425 57.9178 10.6457 58.5847 10.6764C59.1536 10.7024 59.8038 10.7048 59.9233 10.0244C60.1432 8.76049 60.1647 7.46824 59.9209 6.20435C59.7799 5.47672 59.1178 5.41766 58.5058 5.47199C57.8366 5.53342 58.0445 6.0815 58.023 6.46894C57.9919 6.97213 58.0134 7.48006 58.0158 7.98325Z" fill="#FD4D04"/>
<path d="M97.2456 12.916C97.2456 14.7965 97.2408 16.677 97.2504 18.5575C97.2528 19.0252 97.2982 19.4953 97.3388 19.9631C97.3843 20.5041 97.6591 20.8632 98.2424 20.8443C98.8376 20.8254 99.2248 20.4994 99.2511 19.8993C99.3085 18.6071 99.3371 17.3148 99.3563 16.0226C99.3587 15.8454 99.2726 15.5312 99.1722 15.5076C97.2743 15.08 98.6033 13.646 98.3021 12.7294C98.1611 12.2994 98.6965 12.2427 99.0599 12.2427C100.492 12.238 101.923 12.2592 103.353 12.2309C103.958 12.2191 104.089 12.5238 104.091 13.0294C104.106 16.3604 104.127 19.6891 104.156 23.0201C104.161 23.6485 103.934 24.0099 103.245 23.9013C102.311 23.7548 100.979 24.4966 100.745 22.7555C100.695 22.387 100.284 22.5618 100.112 22.8051C98.938 24.4659 97.2791 24.7163 95.5772 24.0005C93.5717 23.1547 92.5128 21.5105 92.4387 19.3016C92.2929 14.9926 92.3096 10.6859 92.453 6.37681C92.5343 3.88445 94.5661 1.77008 97.0879 1.54565C100.394 1.25035 102.741 2.42683 103.652 4.99479C104.123 6.32483 104.12 7.76119 104.111 9.17392C104.106 9.71964 103.795 9.8165 103.341 9.81413C102.227 9.80941 101.113 9.7976 100.002 9.82595C99.3467 9.84248 99.1985 9.50466 99.2033 8.94949C99.2081 7.97144 99.1889 6.99104 99.1507 6.01299C99.1292 5.4531 98.9188 5.01841 98.2424 5.0066C97.5611 4.99479 97.3269 5.42239 97.3221 5.98464C97.3054 8.2951 97.3149 10.6055 97.3149 12.9136C97.2886 12.916 97.2671 12.916 97.2456 12.916Z" fill="#FD4D04"/>
<path d="M117.066 16.4478C117.066 18.6023 117.045 20.7545 117.078 22.9091C117.09 23.6745 116.806 23.9698 116.034 23.9225C115.321 23.8776 114.604 23.9225 113.889 23.9107C113.213 23.8989 112.424 24.1446 112.393 22.9728C112.381 22.498 111.944 22.7106 111.752 23.0012C110.928 24.258 109.68 24.4234 108.399 24.0879C107.067 23.7383 106.303 22.7508 106.126 21.3782C105.951 20.0151 105.954 18.6378 106.087 17.2794C106.228 15.8454 107.261 15.0375 108.516 14.487C109.051 14.2531 109.613 14.0783 110.149 13.8444C112.178 12.9538 112.878 11.4253 112.223 9.34873C112.097 8.94712 111.889 8.64473 111.408 8.62583C110.849 8.60457 110.603 8.96602 110.562 9.41251C110.488 10.2299 110.469 11.0544 110.481 11.8742C110.49 12.5167 110.273 12.8002 109.577 12.7577C108.745 12.7057 107.906 12.701 107.077 12.7553C106.209 12.812 105.992 12.4341 106.021 11.645C106.09 9.65112 106.243 7.69976 108.229 6.53508C110.412 5.25701 112.694 5.29481 114.896 6.38625C116.313 7.08789 116.908 8.47463 116.956 9.99367C117.021 12.1435 116.973 14.298 116.973 16.4502C117.002 16.4478 117.035 16.4478 117.066 16.4478ZM112.281 18.2645C112.288 18.2645 112.295 18.2645 112.305 18.2645C112.305 17.6007 112.314 16.9392 112.3 16.2777C112.295 16.0179 112.415 15.68 112.128 15.5288C111.755 15.3328 111.564 15.7013 111.351 15.9021C110.521 16.6935 110.11 19.741 110.655 20.797C110.851 21.1774 111.179 21.2554 111.542 21.2388C112.003 21.2176 112.269 20.9459 112.278 20.4876C112.29 19.7481 112.281 19.0063 112.281 18.2645Z" fill="#FD4D04"/>
<path d="M134.539 15.0658C131.329 15.0753 131.327 15.0753 131.334 18.2386C131.336 18.9426 131.346 19.6466 131.396 20.3482C131.432 20.8727 131.692 21.2388 132.3 21.2128C132.847 21.1916 133.15 20.9601 133.237 20.3742C133.387 19.3631 133.449 18.3519 133.406 17.3385C133.38 16.729 133.607 16.4738 134.231 16.5282C134.585 16.5612 134.946 16.5329 135.302 16.5329C137.95 16.5329 137.95 16.5329 137.821 19.1623C137.678 22.0799 135.632 24.0832 132.66 24.2178C129.369 24.3667 127.144 22.7437 126.802 19.7056C126.438 16.4785 126.415 13.2184 126.828 9.99133C127.191 7.16587 129.08 5.66337 132.044 5.62557C134.943 5.59013 136.896 7.13043 137.537 9.7858C137.902 11.3025 137.759 12.8168 137.831 14.3358C137.859 14.9335 137.563 15.0776 137.042 15.0705C136.205 15.0564 135.371 15.0658 134.539 15.0658ZM133.096 10.6953C133.052 10.1921 133.076 9.6724 132.954 9.1881C132.766 8.44867 132.233 8.43922 131.676 8.79122C131.374 8.98021 131.123 11.9143 131.365 12.186C131.451 12.2852 131.625 12.3278 131.766 12.3561C132.938 12.5947 133.119 12.3608 133.096 10.6953Z" fill="#FD4D04"/>
<path d="M141.598 17.7661C141.717 17.7661 141.837 17.7661 141.956 17.7661C143.632 17.7684 143.625 17.7684 143.658 19.389C143.665 19.7788 143.709 20.1686 143.775 20.5537C143.866 21.0782 144.253 21.227 144.741 21.2176C145.245 21.2081 145.532 20.9837 145.661 20.4805C146.049 18.9567 145.611 17.8582 144.27 16.9959C143.281 16.3604 142.308 15.7013 141.335 15.0422C140.032 14.1586 139.372 12.9444 139.415 11.371C139.43 10.8229 139.415 10.2748 139.437 9.72673C139.521 7.46825 140.716 6.05316 142.984 5.73896C144.43 5.53815 145.886 5.54524 147.296 6.17601C149.084 6.97451 150.253 9.31803 149.653 11.0757C149.541 11.4064 149.314 11.482 149.025 11.4938C148.628 11.5104 148.231 11.508 147.832 11.5127C145.786 11.5293 145.771 11.5293 145.473 9.54482C145.391 9.00855 145.21 8.64947 144.602 8.6471C143.957 8.6471 143.735 9.018 143.639 9.60152C143.393 11.1206 144.043 12.1246 145.348 12.8664C146.5 13.5208 147.71 14.0901 148.707 14.9973C149.517 15.732 149.931 16.6085 149.928 17.6857C149.928 18.4299 149.954 19.1741 149.926 19.9182C149.821 22.5287 148.374 23.984 145.731 24.1871C144.813 24.258 143.89 24.2698 143.008 24.0147C139.92 23.1217 139.387 21.2152 139.459 18.3401C139.468 17.9551 139.647 17.7661 140.044 17.7708C140.56 17.7755 141.077 17.7731 141.593 17.7731C141.598 17.7708 141.598 17.7684 141.598 17.7661Z" fill="#FD4D04"/>
<path d="M78.8212 12.9042C78.8212 16.1927 78.7973 19.4835 78.8379 22.772C78.8498 23.6131 78.6562 24.0029 77.7216 23.9249C76.8539 23.8517 75.9719 23.8611 75.1019 23.9249C74.1696 23.9958 73.835 23.665 73.8517 22.7319C73.8995 20.1875 73.8685 17.6408 73.8685 15.0965C73.8685 11.2198 73.8971 7.34304 73.8541 3.4663C73.8422 2.34651 74.1171 1.77244 75.3911 1.9449C76.1703 2.04885 76.9806 2.01577 77.7718 1.95199C78.6371 1.88348 78.8451 2.24257 78.8355 3.03634C78.7997 6.3272 78.8212 9.61569 78.8212 12.9042Z" fill="#FD4D04"/>
<path d="M80.9271 12.8333C80.9271 9.54482 80.9486 6.25396 80.9127 2.96547C80.9055 2.21185 81.1039 1.90474 81.9095 1.95435C82.8991 2.01577 83.8958 1.99451 84.8878 1.96144C85.5619 1.93781 85.7937 2.20949 85.7913 2.85916C85.777 9.55427 85.7722 16.2517 85.7889 22.9468C85.7913 23.6532 85.5427 23.9438 84.8185 23.9154C83.946 23.88 83.0664 23.8493 82.1987 23.9225C81.233 24.0029 80.884 23.7146 80.9031 22.7012C80.9653 19.4127 80.9271 16.1218 80.9271 12.8333Z" fill="#FD4D04"/>
<path d="M119.356 15.4981C119.356 13.698 119.358 11.8978 119.356 10.0976C119.356 9.59679 119.459 9.09832 118.675 8.97547C118.182 8.89751 117.986 6.6225 118.45 6.53981C119.7 6.31775 119.385 5.43892 119.332 4.74201C119.26 3.79704 119.607 3.45685 120.534 3.57497C120.886 3.61986 121.249 3.57497 121.605 3.58206C122.32 3.5986 123.159 3.40015 123.714 3.7049C124.39 4.07817 123.922 4.99006 123.991 5.66335C124.039 6.12875 124.173 6.41224 124.686 6.40279C125.719 6.38389 125.387 7.16822 125.387 7.66669C125.384 8.17225 125.726 8.96366 124.737 8.99674C124.046 9.02036 124.003 9.41961 124.005 9.93698C124.012 13.1853 123.991 16.4313 124.024 19.6796C124.031 20.3836 124.015 21.0546 125.141 21.2554C126.111 21.4278 125.456 22.5074 125.592 23.1666C125.707 23.7265 125.346 23.9154 124.813 23.9084C123.742 23.8895 122.671 23.958 121.608 23.7524C120.334 23.5068 119.478 22.6586 119.435 21.364C119.373 19.4103 119.418 17.4542 119.418 15.4981C119.397 15.4981 119.375 15.4981 119.356 15.4981Z" fill="#FD4D04"/>
<path d="M103.334 28.3308C107.847 28.3308 111.513 31.8532 111.501 36.1694C111.489 40.9249 107.885 44.0433 103.408 44.1331C98.7061 44.2252 95.2186 40.8635 95.1015 36.1457C94.9987 31.9595 98.9212 28.3308 103.334 28.3308ZM97.3628 36.2048C97.3795 39.7366 99.8821 42.1959 103.429 42.1675C106.812 42.1392 109.372 39.5334 109.381 36.1457C109.391 32.9281 106.434 30.1381 103.123 30.32C99.8104 30.5019 97.346 32.869 97.3628 36.2048Z" fill="#FD4D04"/>
<path d="M129.534 36.3961C129.398 41.1139 125.557 44.1449 121.23 44.1402C116.643 44.1331 113.034 40.3461 113.172 36.0063C113.309 31.6571 117.241 27.9835 122.038 28.3379C125.891 28.6214 129.732 31.9689 129.534 36.3961ZM121.433 30.3554C117.941 30.3507 115.393 32.8005 115.383 36.1741C115.374 39.6137 117.881 42.1463 121.318 42.1723C124.789 42.1982 127.404 39.6019 127.445 36.1764C127.478 33.4147 124.911 30.1357 121.433 30.3554Z" fill="#FD4D04"/>
<path d="M67.0488 14.8461C67.0488 12.2238 67.0704 9.59917 67.0345 6.97688C67.0249 6.23035 67.2353 5.89725 68.0408 5.93978C69.0304 5.99175 70.0272 5.96813 71.0192 5.94923C71.6239 5.93741 71.8677 6.17838 71.8653 6.78552C71.8534 12.1884 71.851 17.5913 71.8701 22.9941C71.8725 23.7383 71.5331 23.9415 70.8518 23.9178C69.9387 23.8871 69.0208 23.8635 68.1125 23.9249C67.252 23.9816 67.0225 23.6343 67.0345 22.8335C67.0727 20.171 67.0488 17.5086 67.0488 14.8461Z" fill="#FD4D04"/>
<path d="M81.6823 36.2402C81.6823 34.0077 81.7157 31.7776 81.6655 29.5451C81.6488 28.7561 82.0026 28.6332 82.6671 28.6521C83.3244 28.6734 83.8192 28.6994 83.7833 29.5876C83.7212 31.1114 83.7977 32.6423 83.7594 34.166C83.7427 34.8346 83.8742 35.1701 84.6582 35.1488C86.3649 35.0992 88.074 35.1086 89.783 35.1393C90.4476 35.1512 90.6866 34.9574 90.6627 34.2676C90.6101 32.7037 90.6794 31.135 90.6364 29.5711C90.6125 28.7183 91.0882 28.645 91.7646 28.6261C92.4913 28.6049 92.7184 28.8671 92.716 29.5829C92.6897 34.0077 92.6849 38.4302 92.7231 42.855C92.7303 43.6937 92.3718 43.8024 91.6571 43.8118C90.8969 43.8213 90.5886 43.611 90.6197 42.8172C90.6794 41.2935 90.6268 39.765 90.6698 38.2388C90.6914 37.3931 90.5121 36.9631 89.4819 37.0269C87.8995 37.1285 86.3051 37.0836 84.718 37.0293C83.9722 37.0033 83.7451 37.2703 83.7594 37.9672C83.7905 39.6114 83.7164 41.258 83.7905 42.8975C83.8311 43.8165 83.322 43.7882 82.6814 43.8024C82.0384 43.8165 81.6464 43.7409 81.6655 42.933C81.7157 40.7029 81.6823 38.4704 81.6823 36.2402Z" fill="#FD4D04"/>
<path d="M78.7566 32.295C77.6427 32.4556 76.6794 32.6777 75.7376 31.6642C74.3345 30.1546 71.2271 29.9019 69.071 30.9106C67.1349 31.8178 65.6409 34.459 65.8799 36.6537C66.1285 38.9523 67.2066 40.7737 69.4272 41.6596C71.7984 42.6046 74.0763 42.418 76.0197 40.5658C76.8371 39.7862 77.7717 40.2469 78.7279 40.2327C76.9065 43.5094 73.4166 44.8985 69.2837 43.7126C66.2433 42.8408 63.633 40.0555 63.6976 36.03C63.755 32.4084 66.4345 29.3538 70.3881 28.4301C73.5409 27.693 77.1885 29.349 78.7566 32.295Z" fill="#FD4D04"/>
<path d="M101.149 25.7487C116.975 25.7487 132.802 25.7463 148.628 25.7628C149.053 25.7628 149.833 25.5006 149.847 26.0416C149.868 26.7881 149.053 26.4668 148.611 26.4668C116.918 26.4834 85.2248 26.481 53.5316 26.4786C53.2926 26.4786 53.0536 26.4834 52.8169 26.4692C52.5301 26.4527 52.2218 26.4031 52.2672 26.0274C52.3054 25.7179 52.6042 25.7581 52.8337 25.751C53.1516 25.7416 53.4695 25.7463 53.7874 25.7463C69.5754 25.7487 85.361 25.7487 101.149 25.7487Z" fill="#FD4D04"/>
<path d="M145.528 28.3308C147.318 28.3402 148.843 29.3419 149.388 30.9177C149.524 31.3098 149.966 31.8933 149.271 32.1083C148.726 32.2784 147.978 32.4721 147.657 31.6264C147.315 30.7263 146.637 30.2704 145.683 30.1759C144.442 30.053 143.393 30.809 143.161 31.9855C142.924 33.1856 143.498 34.0597 144.736 34.4967C146.022 34.9527 147.399 35.17 148.53 36.0465C150.165 37.3127 150.153 39.0468 149.828 40.743C149.536 42.2715 148.475 43.2873 146.909 43.8354C144.012 44.8489 141.426 43.0038 140.931 40.9627C140.828 40.5422 140.372 39.8807 141.163 39.6988C141.741 39.5641 142.432 39.3893 142.709 40.4004C143.269 42.4416 145.26 42.5384 146.522 42.0234C147.939 41.4446 148.508 39.4862 147.719 38.1325C147.057 36.9938 145.812 36.8332 144.679 36.5544C142.14 35.9284 140.771 33.8754 141.335 31.4752C141.765 29.6372 143.522 28.3214 145.528 28.3308Z" fill="#FD4D04"/>
<path d="M60.0093 39.4507C60.0021 37.79 59.1679 37.1356 56.78 36.5284C53.467 35.685 52.3125 33.11 53.773 30.431C54.612 28.8931 56.0868 28.2056 57.8389 28.3568C59.5504 28.5033 60.7933 29.3915 61.3837 31.0405C61.5224 31.4232 61.8761 31.9595 61.2523 32.1131C60.7097 32.2453 59.9711 32.5029 59.5814 31.7091C58.9002 30.32 58.0827 29.9136 56.7083 30.2727C55.5323 30.5798 55.0255 31.4043 55.114 32.7769C55.1713 33.6888 55.7307 34.1589 56.5075 34.4802C57.4851 34.8865 58.5536 35.0047 59.5169 35.4937C61.0204 36.2567 62.1988 37.9364 62.0913 39.3964C61.9359 41.5344 60.5447 43.1834 58.8213 43.8567C56.6677 44.7 53.73 43.4598 52.9531 41.1304C52.7882 40.632 52.4177 39.9563 53.0846 39.713C53.6845 39.4933 54.4255 39.4413 54.7076 40.4878C55.1116 41.9809 56.3521 42.5172 58.1042 42.203C59.2659 41.9951 60.0165 40.906 60.0093 39.4507Z" fill="#FD4D04"/>
<path d="M131.91 36.1977C131.91 34.0431 131.948 31.8863 131.891 29.7317C131.865 28.782 132.316 28.645 133.122 28.6403C133.97 28.6356 134.185 28.9498 134.174 29.7601C134.128 33.4431 134.178 37.1285 134.126 40.8115C134.114 41.7305 134.37 42.0565 135.323 41.9833C136.389 41.9006 137.47 41.9903 138.543 41.9549C139.217 41.9313 139.435 42.1746 139.439 42.8432C139.442 43.5377 139.255 43.8236 138.502 43.807C136.595 43.7645 134.685 43.7692 132.778 43.807C132.07 43.8212 131.9 43.5306 131.908 42.8999C131.931 40.6674 131.917 38.4325 131.917 36.1977C131.915 36.1977 131.912 36.1977 131.91 36.1977Z" fill="#FD4D04"/>
<path d="M69.4129 4.59083C69.1762 4.59083 68.9372 4.59083 68.7006 4.59083C67.0345 4.59083 66.6831 4.13488 67.0058 2.49299C67.0967 2.02523 67.3692 1.95672 67.7612 1.95908C68.8679 1.96381 69.977 1.96381 71.0837 1.95436C72.2789 1.94491 71.8056 2.83554 71.8558 3.39544C71.906 3.94116 72.0709 4.64752 71.0765 4.59083C70.5244 4.56011 69.9698 4.5861 69.4153 4.5861C69.4129 4.5861 69.4129 4.58846 69.4129 4.59083Z" fill="#FD4D04"/>
</svg>
