<svg width="32" height="32" viewBox="0 0 32 32" fill="none" xmlns="http://www.w3.org/2000/svg">
<g clip-path="url(#clip0)">
<path d="M23.3818 28.0256L18.358 28.7921C17.8031 28.7085 17.3899 28.2101 17.4473 27.652C17.5086 27.056 18.0537 26.6385 18.6394 26.7266L22.8697 26.1043C23.2774 26.0443 23.598 25.7248 23.6593 25.3173L24.8917 17.1373C24.9752 16.5823 25.4737 16.1691 26.0318 16.2265C26.6278 16.2878 27.0453 16.833 26.9572 17.4186L25.7108 25.6921C25.5295 26.8961 24.5855 27.8419 23.3818 28.0256Z" fill="#B2E7F1"/>
<path d="M26.0882 20.1801L24.8998 20.0011C24.2061 19.8966 23.7285 19.2495 23.833 18.5559L24.1404 16.5151C24.2449 15.8214 24.892 15.3438 25.5856 15.4484L26.7741 15.6274C27.4678 15.7319 27.9454 16.379 27.8409 17.0726L27.5335 19.1134C27.4289 19.807 26.7818 20.2846 26.0882 20.1801Z" fill="#EF8BBD"/>
<path d="M18.492 31.3711H6.61509C5.56997 31.3711 4.72278 30.5239 4.72278 29.4788V25.4754C4.72278 24.4303 5.57003 23.5831 6.61509 23.5831H18.4919C19.537 23.5831 20.3842 24.4304 20.3842 25.4754V29.4788C20.3843 30.5239 19.537 31.3711 18.492 31.3711Z" fill="#FFA585"/>
<path d="M18.492 23.5831H15.8842C16.6492 23.5831 17.2693 24.2033 17.2693 24.9683V27.407C17.2693 28.172 16.6492 28.7922 15.8842 28.7922H6.10797C5.34297 28.7922 4.72278 28.172 4.72278 27.407V29.4789C4.72278 30.524 5.57003 31.3712 6.61509 31.3712H18.4919C19.537 31.3712 20.3842 30.5239 20.3842 29.4789V25.4755C20.3843 24.4303 19.537 23.5831 18.492 23.5831Z" fill="#EF7C85"/>
<path d="M18.9237 21.807C22.4435 18.2872 22.4435 12.5804 18.9237 9.06057C15.4039 5.54074 9.69711 5.54074 6.17728 9.06057C2.65746 12.5804 2.65746 18.2872 6.17728 21.807C9.69711 25.3268 15.4039 25.3268 18.9237 21.807Z" fill="#FFE266"/>
<path d="M12.5535 6.41965C12.2609 6.41965 11.9717 6.43408 11.6863 6.46133C15.383 6.85321 18.2632 9.98096 18.2632 13.7817C18.2632 17.8476 14.9671 21.1438 10.9011 21.1438C7.10044 21.1438 3.97269 18.2636 3.58075 14.5668C3.5535 14.8522 3.539 15.1415 3.539 15.434C3.539 20.4126 7.57494 24.4485 12.5534 24.4485C17.5319 24.4485 21.5679 20.4126 21.5679 15.434C21.5679 10.4555 17.5321 6.41965 12.5535 6.41965Z" fill="#EFAA66"/>
<path d="M13.2787 17.166C14.2363 16.769 14.6909 15.6709 14.2939 14.7133C13.897 13.7556 12.7988 13.301 11.8412 13.698C10.8835 14.095 10.429 15.1931 10.8259 16.1507C11.2229 17.1084 12.321 17.563 13.2787 17.166Z" fill="#EF8BBD"/>
<path d="M28.1127 15.7556C27.8115 15.3475 27.3693 15.0811 26.8677 15.0056L25.6793 14.8266C25.1778 14.751 24.6768 14.8753 24.2687 15.1765C23.8605 15.4778 23.5941 15.92 23.5186 16.4215L23.2112 18.4622C23.1356 18.9638 23.2598 19.4648 23.5612 19.8729C23.6339 19.9715 23.715 20.0616 23.8031 20.143L23.0377 25.2236C23.0175 25.3583 22.9132 25.4622 22.7784 25.482L21.0133 25.7418V25.4755C21.0133 24.1147 19.9295 23.003 18.58 22.9565C20.7835 21.1876 22.1969 18.473 22.1969 15.4341C22.1969 10.1167 17.8709 5.79077 12.5536 5.79077C7.23622 5.79077 2.91028 10.1168 2.91028 15.4341C2.91028 18.473 4.32372 21.1876 6.52722 22.9565C5.17772 23.0031 4.09397 24.1148 4.09397 25.4755V29.4788C4.09397 30.869 5.22503 32 6.61522 32H18.492C19.8822 32 21.0133 30.8691 21.0133 29.4788V29.0232L23.4769 28.6473C24.9615 28.4207 26.1092 27.2708 26.3329 25.7858L27.1096 20.6302C27.6513 20.365 28.0589 19.8473 28.1554 19.2071L28.4628 17.1663C28.5383 16.6648 28.414 16.1637 28.1127 15.7556ZM4.16797 15.4341C4.16797 10.8103 7.92972 7.04852 12.5535 7.04852C17.1773 7.04852 20.9391 10.8103 20.9391 15.4341C20.9391 20.0579 17.1773 23.8196 12.5535 23.8196C7.92972 23.8196 4.16797 20.0578 4.16797 15.4341ZM19.7554 29.4788C19.7554 30.1755 19.1886 30.7422 18.492 30.7422H6.61515C5.91853 30.7422 5.35172 30.1755 5.35172 29.4788V25.4755C5.35172 24.7788 5.91853 24.212 6.61515 24.212H8.56259C9.7794 24.7675 11.1309 25.0774 12.5535 25.0774C13.9762 25.0774 15.3277 24.7675 16.5445 24.212H18.492C19.1886 24.212 19.7554 24.7788 19.7554 25.4755V29.4788ZM25.089 25.5985C24.9479 26.5354 24.2237 27.261 23.287 27.4039L21.0132 27.7509V27.0131L22.9613 26.7265C23.6475 26.6256 24.178 26.097 24.2814 25.411L24.9983 20.652L25.8157 20.7751L25.089 25.5985ZM27.2189 16.979L26.9115 19.0196C26.8588 19.3693 26.531 19.6107 26.1818 19.5583L24.9934 19.3792C24.824 19.3537 24.6747 19.2638 24.573 19.1259C24.4713 18.9881 24.4293 18.819 24.4548 18.6496L24.7623 16.6088C24.7878 16.4395 24.8777 16.2902 25.0155 16.1885C25.1533 16.0868 25.3222 16.0448 25.4918 16.0703L26.6803 16.2493C26.8497 16.2748 26.999 16.3648 27.1007 16.5026C27.2025 16.6404 27.2445 16.8096 27.2189 16.979Z" fill="#440A29"/>
<path d="M12.5536 17.688C13.7964 17.688 14.8075 16.6769 14.8075 15.4341C14.8075 14.1913 13.7964 13.1801 12.5536 13.1801C11.3107 13.1801 10.2996 14.1913 10.2996 15.4341C10.2996 16.6768 11.3107 17.688 12.5536 17.688ZM12.5536 13.9348C13.3802 13.9348 14.0528 14.6073 14.0528 15.434C14.0528 16.2607 13.3802 16.9333 12.5536 16.9333C11.7269 16.9333 11.0543 16.2607 11.0543 15.434C11.0543 14.6073 11.7269 13.9348 12.5536 13.9348Z" fill="#440A29"/>
<path d="M9.68438 20.4774C9.74319 20.5108 9.80719 20.5266 9.87031 20.5266C10.0018 20.5266 10.1294 20.4579 10.1988 20.3355C10.3017 20.1542 10.2382 19.9239 10.0569 19.8211C8.65131 19.0233 7.70831 17.5843 7.53438 15.9716C7.512 15.7644 7.32531 15.6147 7.11875 15.637C6.9115 15.6593 6.76175 15.8454 6.78406 16.0526C6.98388 17.906 8.06813 19.5601 9.68438 20.4774Z" fill="#440A29"/>
<path d="M12.5536 20.4808C12.3452 20.4808 12.1763 20.6498 12.1763 20.8581C12.1763 21.0665 12.3452 21.2354 12.5536 21.2354C15.7525 21.2354 18.355 18.6329 18.355 15.434C18.355 15.2256 18.1861 15.0567 17.9777 15.0567C17.7693 15.0567 17.6004 15.2256 17.6004 15.434C17.6003 18.2168 15.3364 20.4808 12.5536 20.4808Z" fill="#440A29"/>
<path d="M15.3751 11.249C15.6761 11.4524 15.956 11.6889 16.2068 11.952C16.281 12.0297 16.3803 12.0689 16.48 12.0689C16.5735 12.0689 16.6672 12.0343 16.7403 11.9647C16.8911 11.8208 16.8968 11.582 16.753 11.4312C16.4648 11.1289 16.1433 10.8572 15.7976 10.6236C15.6247 10.5069 15.3902 10.5523 15.2736 10.725C15.157 10.8977 15.2024 11.1323 15.3751 11.249Z" fill="#440A29"/>
<path d="M17.4421 25.9043C17.2337 25.9043 17.0648 26.0732 17.0648 26.2816V27.0425C17.0648 27.2509 17.2337 27.4199 17.4421 27.4199C17.6504 27.4199 17.8194 27.2509 17.8194 27.0425V26.2816C17.8194 26.0733 17.6504 25.9043 17.4421 25.9043Z" fill="#440A29"/>
<path d="M15.8133 28.1746C15.605 28.1746 15.436 28.3435 15.436 28.5519V29.3128C15.436 29.5212 15.605 29.6901 15.8133 29.6901C16.0217 29.6901 16.1907 29.5212 16.1907 29.3128V28.5519C16.1907 28.3435 16.0217 28.1746 15.8133 28.1746Z" fill="#440A29"/>
<path d="M12.9015 26.6652C12.6931 26.6652 12.5242 26.8342 12.5242 27.0425V27.8035C12.5242 28.0118 12.6931 28.1808 12.9015 28.1808C13.1099 28.1808 13.2788 28.0118 13.2788 27.8035V27.0425C13.2788 26.8342 13.1099 26.6652 12.9015 26.6652Z" fill="#440A29"/>
<path d="M9.36605 9.81484C9.13723 9.81484 8.91661 9.68952 8.80542 9.47177C8.64748 9.1624 8.77023 8.78359 9.07961 8.62571C9.38461 8.47002 9.70255 8.33371 10.0247 8.22059C10.3525 8.10546 10.7114 8.2779 10.8264 8.60559C10.9414 8.93327 10.7691 9.29227 10.4414 9.40734C10.1722 9.50184 9.90649 9.61577 9.65148 9.7459C9.55992 9.79271 9.46223 9.81484 9.36605 9.81484Z" fill="white"/>
<path d="M5.79471 14.1864C5.73915 14.1864 5.68265 14.179 5.62646 14.1634C5.29178 14.0706 5.09559 13.7241 5.18834 13.3895C5.53984 12.1206 6.22109 10.9562 7.15852 10.0218C7.40446 9.77658 7.80271 9.7772 8.0479 10.0232C8.29315 10.2692 8.29246 10.6674 8.04646 10.9126C7.26303 11.6935 6.69384 12.6661 6.4004 13.7253C6.32321 14.0038 6.07028 14.1864 5.79471 14.1864Z" fill="white"/>
<path d="M26.9546 6.86233L27.4887 8.36433C27.5116 8.42864 27.5569 8.47958 27.6141 8.50533L28.9486 9.10658C29.1371 9.19151 29.1371 9.49189 28.9486 9.57683L27.6141 10.1781C27.5569 10.2038 27.5116 10.2548 27.4887 10.3191L26.9546 11.8211C26.8791 12.0333 26.6122 12.0333 26.5367 11.8211L26.0026 10.3191C25.9797 10.2548 25.9344 10.2038 25.8772 10.1781L24.5427 9.57683C24.3542 9.49189 24.3542 9.19151 24.5427 9.10658L25.8772 8.50533C25.9344 8.47958 25.9797 8.42864 26.0026 8.36433L26.5367 6.86233C26.6122 6.65014 26.8791 6.65014 26.9546 6.86233Z" fill="#FEF2A8"/>
<path d="M24.8201 4.47207C24.8736 3.82983 24.3962 3.26585 23.754 3.21238C23.1117 3.15891 22.5477 3.6362 22.4942 4.27844C22.4407 4.92068 22.9181 5.48466 23.5603 5.53813C24.2026 5.5916 24.7666 5.11431 24.8201 4.47207Z" fill="#FFE266"/>
<path d="M11.0818 2.78739C11.0818 3.06021 10.8607 3.28133 10.5879 3.28133C10.3151 3.28133 10.0939 3.06014 10.0939 2.78739C10.0939 2.51458 10.3151 2.29346 10.5879 2.29346C10.8607 2.29339 11.0818 2.51458 11.0818 2.78739Z" fill="#FFE266"/>
<path d="M18.0296 0.118078L18.4258 1.23227C18.4428 1.27995 18.4764 1.31777 18.5188 1.33689L19.5086 1.78289C19.6485 1.84589 19.6485 2.0687 19.5086 2.1317L18.5188 2.5777C18.4764 2.59683 18.4428 2.63458 18.4258 2.68233L18.0296 3.79652C17.9736 3.95389 17.7756 3.95389 17.7196 3.79652L17.3234 2.68233C17.3065 2.63464 17.2728 2.59683 17.2305 2.5777L16.2406 2.1317C16.1007 2.0687 16.1007 1.84589 16.2406 1.78289L17.2305 1.33689C17.2728 1.31777 17.3065 1.28002 17.3234 1.23227L17.7196 0.118078C17.7756 -0.0393594 17.9736 -0.0393594 18.0296 0.118078Z" fill="#FEF2A8"/>
</g>
<defs>
<clipPath id="clip0">
<rect width="32" height="32" fill="white"/>
</clipPath>
</defs>
</svg>
