<svg width="18" height="18" viewBox="0 0 18 18" fill="none" xmlns="http://www.w3.org/2000/svg">
<path d="M16.1994 9.08768L16.0171 8.99996L16.1994 8.91224C17.2929 8.29821 17.6574 6.98242 17.0195 5.92978L15.7437 3.82452C15.4703 3.29821 14.9235 2.94733 14.3768 2.77189C13.83 2.59645 13.1921 2.68417 12.6453 2.94733L12.463 3.03505V2.85961C12.463 1.63154 11.4606 0.666626 10.1848 0.666626H7.72426C6.44844 0.666626 5.44601 1.63154 5.44601 2.85961V3.03505H5.35488C4.8081 2.68417 4.26132 2.59645 3.62341 2.77189C2.9855 2.94733 2.52985 3.29821 2.25646 3.82452L0.98064 5.92978C0.34273 6.98242 0.70725 8.29821 1.80081 8.91224L1.98307 8.99996L1.80081 9.08768C0.70725 9.70171 0.34273 11.0175 0.98064 12.0701L2.25646 14.1754C2.52985 14.7017 3.07663 15.0526 3.62341 15.228C4.26132 15.4035 4.8081 15.3157 5.35488 14.9649H5.44601V15.1403C5.44601 16.3684 6.44844 17.3333 7.72426 17.3333H10.1848C11.4606 17.3333 12.463 16.3684 12.463 15.1403V14.9649L12.6453 15.0526C13.1921 15.3158 13.83 15.4035 14.3768 15.228C15.0147 15.0526 15.4703 14.7017 15.7437 14.1754L17.0195 12.0701C17.6574 11.0175 17.2929 9.70171 16.1994 9.08768ZM9.00008 12.3333C7.08635 12.3333 5.53714 10.8421 5.53714 8.99996C5.53714 7.15785 7.08635 5.66663 9.00008 5.66663C10.9138 5.66663 12.463 7.15785 12.463 8.99996C12.463 10.8421 10.9138 12.3333 9.00008 12.3333Z" fill="#00C48C"/>
</svg>
