<svg width="32" height="31" viewBox="0 0 32 31" fill="none" xmlns="http://www.w3.org/2000/svg">
<path d="M23.9167 27.6667H8.08335V29.25C8.08335 29.6699 7.91654 30.0727 7.61961 30.3696C7.32267 30.6665 6.91995 30.8333 6.50002 30.8333H3.33335C2.91343 30.8333 2.5107 30.6665 2.21377 30.3696C1.91684 30.0727 1.75002 29.6699 1.75002 29.25V15H0.166687V8.66667H1.75002V3.91667C1.75002 3.07681 2.08365 2.27136 2.67752 1.6775C3.27138 1.08363 4.07684 0.75 4.91669 0.75H27.0834C27.9232 0.75 28.7287 1.08363 29.3225 1.6775C29.9164 2.27136 30.25 3.07681 30.25 3.91667V8.66667H31.8334V15H30.25V29.25C30.25 29.6699 30.0832 30.0727 29.7863 30.3696C29.4893 30.6665 29.0866 30.8333 28.6667 30.8333H25.5C25.0801 30.8333 24.6774 30.6665 24.3804 30.3696C24.0835 30.0727 23.9167 29.6699 23.9167 29.25V27.6667ZM4.91669 3.91667V15H27.0834V3.91667H4.91669ZM8.87502 24.5C9.50491 24.5 10.109 24.2498 10.5544 23.8044C10.9998 23.359 11.25 22.7549 11.25 22.125C11.25 21.4951 10.9998 20.891 10.5544 20.4456C10.109 20.0002 9.50491 19.75 8.87502 19.75C8.24513 19.75 7.64104 20.0002 7.19564 20.4456C6.75024 20.891 6.50002 21.4951 6.50002 22.125C6.50002 22.7549 6.75024 23.359 7.19564 23.8044C7.64104 24.2498 8.24513 24.5 8.87502 24.5ZM23.125 24.5C23.7549 24.5 24.359 24.2498 24.8044 23.8044C25.2498 23.359 25.5 22.7549 25.5 22.125C25.5 21.4951 25.2498 20.891 24.8044 20.4456C24.359 20.0002 23.7549 19.75 23.125 19.75C22.4951 19.75 21.891 20.0002 21.4456 20.4456C21.0002 20.891 20.75 21.4951 20.75 22.125C20.75 22.7549 21.0002 23.359 21.4456 23.8044C21.891 24.2498 22.4951 24.5 23.125 24.5Z" fill="#FF872B"/>
</svg>
