<svg width="16" height="16" viewBox="0 0 16 16" fill="none" xmlns="http://www.w3.org/2000/svg">
<path d="M7.99998 1.33337C4.32651 1.33337 1.33331 4.32657 1.33331 8.00004C1.33331 11.6735 4.32651 14.6667 7.99998 14.6667C11.6735 14.6667 14.6666 11.6735 14.6666 8.00004C14.6666 4.32657 11.6735 1.33337 7.99998 1.33337ZM9.70066 9.02045C9.90474 9.22453 9.90474 9.56467 9.70066 9.76875C9.56461 9.83678 9.49658 9.9048 9.36053 9.9048C9.22447 9.9048 9.08842 9.83678 9.02039 9.76875L7.99998 8.74834L6.97957 9.76875C6.77549 9.97283 6.43535 9.97283 6.23127 9.76875C6.02719 9.56467 6.02719 9.22453 6.23127 9.02045L7.25168 8.00004L6.23127 6.97963C6.02719 6.77555 6.02719 6.43542 6.23127 6.23133C6.43535 6.02725 6.77549 6.02725 6.97957 6.23133L7.99998 7.25174L9.02039 6.23133C9.22447 6.02725 9.56461 6.02725 9.76869 6.23133C9.97277 6.43542 9.97277 6.77555 9.76869 6.97963L8.74828 8.00004L9.70066 9.02045Z" fill="#D70000"/>
</svg>
